<?xml version="1.0" encoding="utf-8"?>
<!-- Generator: Adobe Illustrator 21.1.0, SVG Export Plug-In . SVG Version: 6.00 Build 0)  -->
<svg version="1.1" id="Layer_1" xmlns="http://www.w3.org/2000/svg" xmlns:xlink="http://www.w3.org/1999/xlink" x="0px" y="0px"
	 viewBox="0 0 25 15" style="enable-background:new 0 0 25 15;" xml:space="preserve">

<rect y="0" fill="#001468" width="25" height="15"/><path fill="#FFFFFF" d="M25,15l-2.6,0l-7-4.9V15H10v-4.9L2.8,15L0,15v-1.6l5.4-3.7L0,9.7V5.3l5.4,0L0,1.4V0l2.8,0L10,4.9V0h5.3v4.9L22.6,0L25,0l0,1.4l-5.3,3.9H25v4.4h-5.3l5.3,3.6L25,15z"/><path fill="#FF0000" d="M14.3,15h-3.6V8.9H0V6.1h10.7V0h3.6v6.1H25v3H14.3V15z"/>
</svg>
